<?xml version="1.0" encoding="UTF-8" standalone="no"?>
<!-- Created with Inkscape (http://www.inkscape.org/) -->

<svg
   xmlns:dc="http://purl.org/dc/elements/1.1/"
   xmlns:cc="http://creativecommons.org/ns#"
   xmlns:rdf="http://www.w3.org/1999/02/22-rdf-syntax-ns#"
   xmlns:svg="http://www.w3.org/2000/svg"
   xmlns="http://www.w3.org/2000/svg"
   xmlns:sodipodi="http://sodipodi.sourceforge.net/DTD/sodipodi-0.dtd"
   xmlns:inkscape="http://www.inkscape.org/namespaces/inkscape"
   width="16"
   height="16"
   id="svg2"
   version="1.1"
   inkscape:version="0.48.1 r9760"
   sodipodi:docname="grenade.svg"
   inkscape:export-filename="/home/vlad/projects/urtconnector/artwork/weapon/grenade.png"
   inkscape:export-xdpi="90"
   inkscape:export-ydpi="90">
  <defs
     id="defs4" />
  <sodipodi:namedview
     id="base"
     pagecolor="#ffffff"
     bordercolor="#666666"
     borderopacity="1.0"
     inkscape:pageopacity="0.0"
     inkscape:pageshadow="2"
     inkscape:zoom="31.678384"
     inkscape:cx="4.1996958"
     inkscape:cy="7.9380927"
     inkscape:document-units="px"
     inkscape:current-layer="layer1"
     showgrid="false"
     inkscape:window-width="1920"
     inkscape:window-height="1015"
     inkscape:window-x="-4"
     inkscape:window-y="-3"
     inkscape:window-maximized="1" />
  <metadata
     id="metadata7">
    <rdf:RDF>
      <cc:Work
         rdf:about="">
        <dc:format>image/svg+xml</dc:format>
        <dc:type
           rdf:resource="http://purl.org/dc/dcmitype/StillImage" />
        <dc:title></dc:title>
      </cc:Work>
    </rdf:RDF>
  </metadata>
  <g
     inkscape:label="Layer 1"
     inkscape:groupmode="layer"
     id="layer1"
     transform="translate(0,-1036.3622)">
    <path
       style="font-size:medium;font-style:normal;font-variant:normal;font-weight:normal;font-stretch:normal;text-indent:0;text-align:start;text-decoration:none;line-height:normal;letter-spacing:normal;word-spacing:normal;text-transform:none;direction:ltr;block-progression:tb;writing-mode:lr-tb;text-anchor:start;baseline-shift:baseline;color:#000000;fill:#000000;fill-opacity:1;stroke:none;stroke-width:1.5;marker:none;visibility:visible;display:inline;overflow:visible;enable-background:accumulate;font-family:Sans;-inkscape-font-specification:Sans"
       d="m 5.3427982,1036.7672 0,0.3437 -0.6875,0 0,1.5 0.6875,0 0,1.7188 c -1.2992426,0.7194 -2.291138,1.9521 -2.78125,3.4375 3.5572908,-1.1458 7.057896,-0.9312 10.5312498,-0.063 -0.521135,-1.5059 -1.560419,-2.7417 -2.90625,-3.4375 l 0,-1.625 0.65625,0 2.21875,4.125 1.3125,-0.6875 -2.375,-4.5313 -0.21875,-0.375 -0.46875,-0.031 -1.125,0 0,-0.375 -0.7499998,0 -3.34375,0 -0.75,0 z m 2.6875,7.6562 c -2.2087329,-0.048 -4.4822201,0.1828 -5.78125,0.875 -0.012669,0.1669 -0.03125,0.3295 -0.03125,0.5 0,3.3589 2.4897142,6.1563 5.625,6.1563 3.1352858,0 5.6249998,-2.7974 5.6249998,-6.1563 0,-0.1962 -0.01425,-0.3712 -0.03125,-0.5625 -1.053539,-0.4359 -3.197517,-0.764 -5.4062498,-0.8125 z"
       id="path2989-7"
       inkscape:connector-curvature="0" />
  </g>
</svg>
